<?xml version="1.0" encoding="utf-8"?>
<!-- Generator: Adobe Illustrator 25.2.3, SVG Export Plug-In . SVG Version: 6.00 Build 0)  -->
<svg version="1.1" xmlns="http://www.w3.org/2000/svg" xmlns:xlink="http://www.w3.org/1999/xlink" x="0px" y="0px"
	 viewBox="0 0 64 64" enable-background="new 0 0 64 64" xml:space="preserve">
<g id="Layer_3">
</g>
<g id="Layer_4">
</g>
<g id="Layer_5">
</g>
<g id="Layer_6">
</g>
<g id="Layer_7">
</g>
<g id="Layer_8">
</g>
<g id="Layer_9">
</g>
<g id="Layer_10">
</g>
<g id="Layer_11">
</g>
<g id="Layer_12">
</g>
<g id="Layer_13">
</g>
<g id="Layer_14">
</g>
<g id="Layer_15">
</g>
<g id="Layer_16">
</g>
<g id="Layer_17">
	<g>
		
			<rect x="18" y="36" fill="white" stroke="#000000" stroke-width="2" stroke-linejoin="round" stroke-miterlimit="10" width="28" height="26"/>
		<polyline fill="white" stroke="#000000" stroke-width="2" stroke-linejoin="round" stroke-miterlimit="10" points="46,36 42,32 
			22,32 18,36 		"/>
		<polyline fill="white" stroke="#000000" stroke-width="2" stroke-linejoin="round" stroke-miterlimit="10" points="18,42 2,42 
			2,59 18,59 		"/>
		<polyline fill="white" stroke="#000000" stroke-width="2" stroke-linejoin="round" stroke-miterlimit="10" points="2,42 6,38 
			18,38 		"/>
		<polyline fill="white" stroke="#000000" stroke-width="2" stroke-linejoin="round" stroke-miterlimit="10" points="46,46 62,46 
			62,59 46,59 		"/>
		<polyline fill="white" stroke="#000000" stroke-width="2" stroke-linejoin="round" stroke-miterlimit="10" points="62,46 58,42 
			46,42 		"/>
		<polygon fill="white" stroke="#000000" stroke-width="2" stroke-linejoin="round" stroke-miterlimit="10" points="32,22 42,28 
			37,18 45,11 35,11 32,2 29,11 19,11 27,18 22,28 		"/>
		<polygon fill="white" stroke="#000000" stroke-width="2" stroke-linejoin="round" stroke-miterlimit="10" points="34,54 34,42 
			30,42 26,45 28,48 30,46 30,54 26,54 26,58 38,58 38,54 		"/>
	</g>
</g>
<g id="Layer_18">
</g>
<g id="Layer_19">
</g>
<g id="Layer_20">
</g>
<g id="Layer_21">
</g>
<g id="Layer_22">
</g>
<g id="Layer_23">
</g>
<g id="Layer_24">
</g>
<g id="Layer_25">
</g>
<g id="Layer_26">
</g>
<g id="Layer_27">
</g>
<g id="Layer_28">
</g>
<g id="Layer_29">
</g>
<g id="Layer_30">
</g>
<g id="Layer_31">
</g>
<g id="Layer_32">
</g>
<g id="Layer_1" display="none">
</g>
<g id="Layer_2">
</g>
</svg>
